<svg height="3166" width="720" xmlns="http://www.w3.org/2000/svg">
<rect height="3166" fill="#555" width="720"></rect>
<text fill="#7f7" font-family="Courier New" font-size="12" xml:space="preserve">
<tspan x="10" y="26"></tspan>
<tspan x="10" y="42">[MODE_BUILD=testExampleJs] - 2015-11-19T17:57:44Z - testing example.js</tspan>
<tspan x="10" y="58"></tspan>
<tspan x="10" y="74">npm install electron-prebuilt &amp;&amp;  printf '{"main":"example.js","name":"example","version":"0.0.0\</tspan>
<tspan x="10" y="90">"}' &gt;  package.json &amp;&amp;  ./node_modules/.bin/electron . --disable-overlay-scrollbar --enable-logg\</tspan>
<tspan x="10" y="106">ing</tspan>
<tspan x="10" y="122"></tspan>
<tspan x="10" y="138"></tspan>
<tspan x="10" y="154">&gt; electron-prebuilt@0.35.0 postinstall /tmp/app/node_modules/electron-prebuilt</tspan>
<tspan x="10" y="170">&gt; node install.js</tspan>
<tspan x="10" y="186"></tspan>
<tspan x="10" y="202">Downloading electron-v0.35.0-linux-x64.zip</tspan>
<tspan x="10" y="218">[&gt;                                            ] 0.0% (0 B/s)</tspan>
<tspan x="10" y="234">[1000D[0K[1A[1000D[0K[1A[1000D[0KDownloading electron-v0.35.0-linux-x64.zip</tspan>
<tspan x="10" y="250">[&gt;                                            ] 0.0% of 36.91 MB (0 B/s)</tspan>
<tspan x="10" y="266">[1000D[0K[1A[1000D[0K[1A[1000D[0KDownloading electron-v0.35.0-linux-x64.zip</tspan>
<tspan x="10" y="282">[============&gt;                                ] 29.5% of 36.91 MB (10.9 MB/s)</tspan>
<tspan x="10" y="298">[1000D[0K[1A[1000D[0K[1A[1000D[0KDownloading electron-v0.35.0-linux-x64.zip</tspan>
<tspan x="10" y="314">[=============================&gt;               ] 67.2% of 36.91 MB (24.81 MB/s)</tspan>
<tspan x="10" y="330">[1000D[0K[1A[1000D[0K[1A[1000D[0KDownloading electron-v0.35.0-linux-x64.zip</tspan>
<tspan x="10" y="346">[============================================&gt;] 100.0% of 36.91 MB (29.53 MB/s)</tspan>
<tspan x="10" y="362">[1000D[0K[1A[1000D[0K[1A[1000D[0KDownloading electron-v0.35.0-linux-x64.zip</tspan>
<tspan x="10" y="378">[============================================&gt;] 100.0% of 36.91 MB (29.53 MB/s)</tspan>
<tspan x="10" y="394">[1000D[0K[1A[1000D[0K[1A[1000D[0KDownloading electron-v0.35.0-linux-x64.zip</tspan>
<tspan x="10" y="410">[============================================&gt;] 100.0% of 36.91 MB (29.53 MB/s)</tspan>
<tspan x="10" y="426">/tmp/app</tspan>
<tspan x="10" y="442">└─┬ electron-prebuilt@0.35.0 </tspan>
<tspan x="10" y="458">  ├─┬ electron-download@1.4.0 </tspan>
<tspan x="10" y="474">  │ ├─┬ debug@2.2.0 </tspan>
<tspan x="10" y="490">  │ │ └── ms@0.7.1 </tspan>
<tspan x="10" y="506">  │ ├── home-path@1.0.1 </tspan>
<tspan x="10" y="522">  │ ├── minimist@1.2.0 </tspan>
<tspan x="10" y="538">  │ ├─┬ mkdirp@0.5.1 </tspan>
<tspan x="10" y="554">  │ │ └── minimist@0.0.8 </tspan>
<tspan x="10" y="570">  │ ├─┬ mv@2.1.1 </tspan>
<tspan x="10" y="586">  │ │ ├── ncp@2.0.0 </tspan>
<tspan x="10" y="602">  │ │ └─┬ rimraf@2.4.3 </tspan>
<tspan x="10" y="618">  │ │   └─┬ glob@5.0.15 </tspan>
<tspan x="10" y="634">  │ │     ├─┬ inflight@1.0.4 </tspan>
<tspan x="10" y="650">  │ │     │ └── wrappy@1.0.1 </tspan>
<tspan x="10" y="666">  │ │     ├─┬ minimatch@3.0.0 </tspan>
<tspan x="10" y="682">  │ │     │ └─┬ brace-expansion@1.1.1 </tspan>
<tspan x="10" y="698">  │ │     │   ├── balanced-match@0.2.1 </tspan>
<tspan x="10" y="714">  │ │     │   └── concat-map@0.0.1 </tspan>
<tspan x="10" y="730">  │ │     ├── once@1.3.2 </tspan>
<tspan x="10" y="746">  │ │     └── path-is-absolute@1.0.0 </tspan>
<tspan x="10" y="762">  │ ├─┬ nugget@1.6.0 </tspan>
<tspan x="10" y="778">  │ │ ├─┬ pretty-bytes@1.0.4 </tspan>
<tspan x="10" y="794">  │ │ │ ├── get-stdin@4.0.1 </tspan>
<tspan x="10" y="810">  │ │ │ └─┬ meow@3.6.0 </tspan>
<tspan x="10" y="826">  │ │ │   ├─┬ camelcase-keys@2.0.0 </tspan>
<tspan x="10" y="842">  │ │ │   │ ├── camelcase@2.0.1 </tspan>
<tspan x="10" y="858">  │ │ │   │ └── map-obj@1.0.1 </tspan>
<tspan x="10" y="874">  │ │ │   ├─┬ loud-rejection@1.2.0 </tspan>
<tspan x="10" y="890">  │ │ │   │ └── signal-exit@2.1.2 </tspan>
<tspan x="10" y="906">  │ │ │   ├─┬ normalize-package-data@2.3.5 </tspan>
<tspan x="10" y="922">  │ │ │   │ ├── hosted-git-info@2.1.4 </tspan>
<tspan x="10" y="938">  │ │ │   │ ├─┬ is-builtin-module@1.0.0 </tspan>
<tspan x="10" y="954">  │ │ │   │ │ └── builtin-modules@1.1.0 </tspan>
<tspan x="10" y="970">  │ │ │   │ ├── semver@5.1.0 </tspan>
<tspan x="10" y="986">  │ │ │   │ └─┬ validate-npm-package-license@3.0.1 </tspan>
<tspan x="10" y="1002">  │ │ │   │   ├─┬ spdx-correct@1.0.2 </tspan>
<tspan x="10" y="1018">  │ │ │   │   │ └── spdx-license-ids@1.1.0 </tspan>
<tspan x="10" y="1034">  │ │ │   │   └─┬ spdx-expression-parse@1.0.1 </tspan>
<tspan x="10" y="1050">  │ │ │   │     └── spdx-exceptions@1.0.4 </tspan>
<tspan x="10" y="1066">  │ │ │   ├── object-assign@4.0.1 </tspan>
<tspan x="10" y="1082">  │ │ │   ├─┬ read-pkg-up@1.0.1 </tspan>
<tspan x="10" y="1098">  │ │ │   │ ├─┬ find-up@1.1.0 </tspan>
<tspan x="10" y="1114">  │ │ │   │ │ ├── path-exists@2.1.0 </tspan>
<tspan x="10" y="1130">  │ │ │   │ │ └─┬ pinkie-promise@2.0.0 </tspan>
<tspan x="10" y="1146">  │ │ │   │ │   └── pinkie@2.0.1 </tspan>
<tspan x="10" y="1162">  │ │ │   │ └─┬ read-pkg@1.1.0 </tspan>
<tspan x="10" y="1178">  │ │ │   │   ├─┬ load-json-file@1.1.0 </tspan>
<tspan x="10" y="1194">  │ │ │   │   │ ├── graceful-fs@4.1.2 </tspan>
<tspan x="10" y="1210">  │ │ │   │   │ ├─┬ parse-json@2.2.0 </tspan>
<tspan x="10" y="1226">  │ │ │   │   │ │ └─┬ error-ex@1.3.0 </tspan>
<tspan x="10" y="1242">  │ │ │   │   │ │   └── is-arrayish@0.2.1 </tspan>
<tspan x="10" y="1258">  │ │ │   │   │ ├── pify@2.3.0 </tspan>
<tspan x="10" y="1274">  │ │ │   │   │ └─┬ strip-bom@2.0.0 </tspan>
<tspan x="10" y="1290">  │ │ │   │   │   └── is-utf8@0.2.0 </tspan>
<tspan x="10" y="1306">  │ │ │   │   └── path-type@1.1.0 </tspan>
<tspan x="10" y="1322">  │ │ │   ├─┬ redent@1.0.0 </tspan>
<tspan x="10" y="1338">  │ │ │   │ ├─┬ indent-string@2.1.0 </tspan>
<tspan x="10" y="1354">  │ │ │   │ │ └─┬ repeating@2.0.0 </tspan>
<tspan x="10" y="1370">  │ │ │   │ │   └─┬ is-finite@1.0.1 </tspan>
<tspan x="10" y="1386">  │ │ │   │ │     └── number-is-nan@1.0.0 </tspan>
<tspan x="10" y="1402">  │ │ │   │ └── strip-indent@1.0.1 </tspan>
<tspan x="10" y="1418">  │ │ │   └── trim-newlines@1.0.0 </tspan>
<tspan x="10" y="1434">  │ │ ├─┬ progress-stream@1.1.1 </tspan>
<tspan x="10" y="1450">  │ │ │ ├── single-line-log@0.3.1 </tspan>
<tspan x="10" y="1466">  │ │ │ ├── speedometer@0.1.4 </tspan>
<tspan x="10" y="1482">  │ │ │ └─┬ through2@0.2.3 </tspan>
<tspan x="10" y="1498">  │ │ │   ├── readable-stream@1.1.13 </tspan>
<tspan x="10" y="1514">  │ │ │   └─┬ xtend@2.1.2 </tspan>
<tspan x="10" y="1530">  │ │ │     └── object-keys@0.4.0 </tspan>
<tspan x="10" y="1546">  │ │ ├─┬ request@2.67.0 </tspan>
<tspan x="10" y="1562">  │ │ │ ├── aws-sign2@0.6.0 </tspan>
<tspan x="10" y="1578">  │ │ │ ├─┬ bl@1.0.0 </tspan>
<tspan x="10" y="1594">  │ │ │ │ └── readable-stream@2.0.4 </tspan>
<tspan x="10" y="1610">  │ │ │ ├── caseless@0.11.0 </tspan>
<tspan x="10" y="1626">  │ │ │ ├─┬ combined-stream@1.0.5 </tspan>
<tspan x="10" y="1642">  │ │ │ │ └── delayed-stream@1.0.0 </tspan>
<tspan x="10" y="1658">  │ │ │ ├── extend@3.0.0 </tspan>
<tspan x="10" y="1674">  │ │ │ ├── forever-agent@0.6.1 </tspan>
<tspan x="10" y="1690">  │ │ │ ├─┬ form-data@1.0.0-rc3 </tspan>
<tspan x="10" y="1706">  │ │ │ │ └── async@1.5.0 </tspan>
<tspan x="10" y="1722">  │ │ │ ├─┬ har-validator@2.0.2 </tspan>
<tspan x="10" y="1738">  │ │ │ │ ├─┬ chalk@1.1.1 </tspan>
<tspan x="10" y="1754">  │ │ │ │ │ ├── ansi-styles@2.1.0 </tspan>
<tspan x="10" y="1770">  │ │ │ │ │ ├── escape-string-regexp@1.0.3 </tspan>
<tspan x="10" y="1786">  │ │ │ │ │ ├─┬ has-ansi@2.0.0 </tspan>
<tspan x="10" y="1802">  │ │ │ │ │ │ └── ansi-regex@2.0.0 </tspan>
<tspan x="10" y="1818">  │ │ │ │ │ ├── strip-ansi@3.0.0 </tspan>
<tspan x="10" y="1834">  │ │ │ │ │ └── supports-color@2.0.0 </tspan>
<tspan x="10" y="1850">  │ │ │ │ ├─┬ commander@2.9.0 </tspan>
<tspan x="10" y="1866">  │ │ │ │ │ └── graceful-readlink@1.0.1 </tspan>
<tspan x="10" y="1882">  │ │ │ │ ├─┬ is-my-json-valid@2.12.3 </tspan>
<tspan x="10" y="1898">  │ │ │ │ │ ├── generate-function@2.0.0 </tspan>
<tspan x="10" y="1914">  │ │ │ │ │ ├─┬ generate-object-property@1.2.0 </tspan>
<tspan x="10" y="1930">  │ │ │ │ │ │ └── is-property@1.0.2 </tspan>
<tspan x="10" y="1946">  │ │ │ │ │ ├── jsonpointer@2.0.0 </tspan>
<tspan x="10" y="1962">  │ │ │ │ │ └── xtend@4.0.1 </tspan>
<tspan x="10" y="1978">  │ │ │ │ └─┬ pinkie-promise@1.0.0 </tspan>
<tspan x="10" y="1994">  │ │ │ │   └── pinkie@1.0.0 </tspan>
<tspan x="10" y="2010">  │ │ │ ├─┬ hawk@3.1.1 </tspan>
<tspan x="10" y="2026">  │ │ │ │ ├── boom@2.10.1 </tspan>
<tspan x="10" y="2042">  │ │ │ │ ├── cryptiles@2.0.5 </tspan>
<tspan x="10" y="2058">  │ │ │ │ ├── hoek@2.16.3 </tspan>
<tspan x="10" y="2074">  │ │ │ │ └── sntp@1.0.9 </tspan>
<tspan x="10" y="2090">  │ │ │ ├─┬ http-signature@1.1.0 </tspan>
<tspan x="10" y="2106">  │ │ │ │ ├── assert-plus@0.1.5 </tspan>
<tspan x="10" y="2122">  │ │ │ │ ├─┬ jsprim@1.2.2 </tspan>
<tspan x="10" y="2138">  │ │ │ │ │ ├── extsprintf@1.0.2 </tspan>
<tspan x="10" y="2154">  │ │ │ │ │ ├── json-schema@0.2.2 </tspan>
<tspan x="10" y="2170">  │ │ │ │ │ └── verror@1.3.6 </tspan>
<tspan x="10" y="2186">  │ │ │ │ └─┬ sshpk@1.7.0 </tspan>
<tspan x="10" y="2202">  │ │ │ │   ├── asn1@0.2.3 </tspan>
<tspan x="10" y="2218">  │ │ │ │   ├── assert-plus@0.2.0 </tspan>
<tspan x="10" y="2234">  │ │ │ │   ├── dashdash@1.10.1 </tspan>
<tspan x="10" y="2250">  │ │ │ │   ├─┬ ecc-jsbn@0.0.1 </tspan>
<tspan x="10" y="2266">  │ │ │ │   │ └── jsbn@0.0.0  (git+https://github.com/rynomad/jsbn.git#bb522b0124f75424f89d49446\</tspan>
<tspan x="10" y="2282">c40a87111942c7b)</tspan>
<tspan x="10" y="2298">  │ │ │ │   ├── jodid25519@1.0.2 </tspan>
<tspan x="10" y="2314">  │ │ │ │   ├── jsbn@0.1.0 </tspan>
<tspan x="10" y="2330">  │ │ │ │   └── tweetnacl@0.13.2 </tspan>
<tspan x="10" y="2346">  │ │ │ ├── is-typedarray@1.0.0 </tspan>
<tspan x="10" y="2362">  │ │ │ ├── isstream@0.1.2 </tspan>
<tspan x="10" y="2378">  │ │ │ ├── json-stringify-safe@5.0.1 </tspan>
<tspan x="10" y="2394">  │ │ │ ├─┬ mime-types@2.1.7 </tspan>
<tspan x="10" y="2410">  │ │ │ │ └── mime-db@1.19.0 </tspan>
<tspan x="10" y="2426">  │ │ │ ├── node-uuid@1.4.7 </tspan>
<tspan x="10" y="2442">  │ │ │ ├── oauth-sign@0.8.0 </tspan>
<tspan x="10" y="2458">  │ │ │ ├── qs@5.2.0 </tspan>
<tspan x="10" y="2474">  │ │ │ ├── stringstream@0.0.5 </tspan>
<tspan x="10" y="2490">  │ │ │ ├── tough-cookie@2.2.1 </tspan>
<tspan x="10" y="2506">  │ │ │ └── tunnel-agent@0.4.1 </tspan>
<tspan x="10" y="2522">  │ │ ├── single-line-log@0.4.1 </tspan>
<tspan x="10" y="2538">  │ │ └── throttleit@0.0.2 </tspan>
<tspan x="10" y="2554">  │ ├── path-exists@1.0.0 </tspan>
<tspan x="10" y="2570">  │ └─┬ rc@1.1.5 </tspan>
<tspan x="10" y="2586">  │   ├── deep-extend@0.4.0 </tspan>
<tspan x="10" y="2602">  │   ├── ini@1.3.4 </tspan>
<tspan x="10" y="2618">  │   └── strip-json-comments@1.0.4 </tspan>
<tspan x="10" y="2634">  └─┬ extract-zip@1.2.0 </tspan>
<tspan x="10" y="2650">    ├── async@0.9.0 </tspan>
<tspan x="10" y="2666">    ├─┬ concat-stream@1.5.0 </tspan>
<tspan x="10" y="2682">    │ ├── inherits@2.0.1 </tspan>
<tspan x="10" y="2698">    │ ├─┬ readable-stream@2.0.4 </tspan>
<tspan x="10" y="2714">    │ │ ├── core-util-is@1.0.1 </tspan>
<tspan x="10" y="2730">    │ │ ├── isarray@0.0.1 </tspan>
<tspan x="10" y="2746">    │ │ ├── process-nextick-args@1.0.3 </tspan>
<tspan x="10" y="2762">    │ │ ├── string_decoder@0.10.31 </tspan>
<tspan x="10" y="2778">    │ │ └── util-deprecate@1.0.2 </tspan>
<tspan x="10" y="2794">    │ └── typedarray@0.0.6 </tspan>
<tspan x="10" y="2810">    ├── debug@0.7.4 </tspan>
<tspan x="10" y="2826">    ├─┬ mkdirp@0.5.0 </tspan>
<tspan x="10" y="2842">    │ └── minimist@0.0.8 </tspan>
<tspan x="10" y="2858">    └─┬ yauzl@2.3.1 </tspan>
<tspan x="10" y="2874">      ├── fd-slicer@1.0.1 </tspan>
<tspan x="10" y="2890">      └── pend@1.2.0 </tspan>
<tspan x="10" y="2906"></tspan>
<tspan x="10" y="2922">npm WARN ENOENT ENOENT: no such file or directory, open '/tmp/app/package.json'</tspan>
<tspan x="10" y="2938">npm WARN EPACKAGEJSON /tmp/app No description</tspan>
<tspan x="10" y="2954">npm WARN EPACKAGEJSON /tmp/app No repository field.</tspan>
<tspan x="10" y="2970">npm WARN EPACKAGEJSON /tmp/app No README data</tspan>
<tspan x="10" y="2986">npm WARN EPACKAGEJSON /tmp/app No license field.</tspan>
<tspan x="10" y="3002">[2517:1119/175802:ERROR:browser_main_loop.cc(189)] Running without the SUID sandbox! See https:/\</tspan>
<tspan x="10" y="3018">/code.google.com/p/chromium/wiki/LinuxSUIDSandboxDevelopment for more information on developing \</tspan>
<tspan x="10" y="3034">with the sandbox on.</tspan>
<tspan x="10" y="3050">Xlib:  extension "RANDR" missing on display ":99.0".</tspan>
<tspan x="10" y="3066">Xlib:  extension "RANDR" missing on display ":99.0".</tspan>
<tspan x="10" y="3082">[2556:1119/175802:ERROR:renderer_main.cc(200)] Running without renderer sandbox</tspan>
<tspan x="10" y="3098">[2536:1119/175802:ERROR:sandbox_linux.cc(345)] InitializeSandbox() called with multiple threads \</tspan>
<tspan x="10" y="3114">in process gpu-process</tspan>
<tspan x="10" y="3130">[2517:1119/175802:ERROR:browser_gpu_channel_host_factory.cc(133)] Failed to create channel.</tspan>
<tspan x="10" y="3146">[2517:1119/175803:ERROR:channel.cc(307)] RawChannel read error (connection broken)</tspan>
</text>
</svg>
