<svg height="686" width="720" xmlns="http://www.w3.org/2000/svg">
<rect height="686" fill="#555" width="720"></rect>
<text fill="#7f7" font-family="Courier New" font-size="12" xml:space="preserve">
<tspan x="10" y="26">2015-11-20 04:14:32 +0800</tspan>
<tspan x="10" y="42">fix linux build</tspan>
<tspan x="10" y="58"></tspan>
<tspan x="10" y="74">2015-11-20 04:09:26 +0800</tspan>
<tspan x="10" y="90">fix linux build</tspan>
<tspan x="10" y="106"></tspan>
<tspan x="10" y="122">2015-11-20 03:49:16 +0800</tspan>
<tspan x="10" y="138">fix build</tspan>
<tspan x="10" y="154"></tspan>
<tspan x="10" y="170">2015-11-20 03:36:14 +0800</tspan>
<tspan x="10" y="186">fix build</tspan>
<tspan x="10" y="202"></tspan>
<tspan x="10" y="218">2015-11-20 03:11:41 +0800</tspan>
<tspan x="10" y="234">fix build</tspan>
<tspan x="10" y="250"></tspan>
<tspan x="10" y="266">2015-11-20 03:05:44 +0800</tspan>
<tspan x="10" y="282">fix build</tspan>
<tspan x="10" y="298"></tspan>
<tspan x="10" y="314">2015-11-20 02:53:32 +0800</tspan>
<tspan x="10" y="330">fix build</tspan>
<tspan x="10" y="346"></tspan>
<tspan x="10" y="362">2015-11-20 02:38:03 +0800</tspan>
<tspan x="10" y="378">fix build</tspan>
<tspan x="10" y="394"></tspan>
<tspan x="10" y="410">2015-11-20 02:22:17 +0800</tspan>
<tspan x="10" y="426">debug build</tspan>
<tspan x="10" y="442"></tspan>
<tspan x="10" y="458">2015-11-20 02:20:36 +0800</tspan>
<tspan x="10" y="474">debug build</tspan>
<tspan x="10" y="490"></tspan>
<tspan x="10" y="506">2015-11-20 02:13:28 +0800</tspan>
<tspan x="10" y="522">debug build</tspan>
<tspan x="10" y="538"></tspan>
<tspan x="10" y="554">2015-11-20 02:08:32 +0800</tspan>
<tspan x="10" y="570">fix example</tspan>
<tspan x="10" y="586"></tspan>
<tspan x="10" y="602">2015-11-20 01:56:19 +0800</tspan>
<tspan x="10" y="618">- npm publish 2015.10.2</tspan>
<tspan x="10" y="634"></tspan>
<tspan x="10" y="650">2014-03-26 02:31:50 +0700</tspan>
<tspan x="10" y="666">add blank README.md</tspan>
</text>
</svg>
