<svg height="558" width="720" xmlns="http://www.w3.org/2000/svg">
<rect height="558" fill="#555" width="720"></rect>
<text fill="#7f7" font-family="Courier New" font-size="12" xml:space="preserve">
<tspan x="10" y="26">2015-11-20 17:02:43 +0800</tspan>
<tspan x="10" y="42">- npm publish 2015.10.4</tspan>
<tspan x="10" y="58"></tspan>
<tspan x="10" y="74">2015-11-20 16:57:38 +0800</tspan>
<tspan x="10" y="90">- npm publish 2015.10.4</tspan>
<tspan x="10" y="106"></tspan>
<tspan x="10" y="122">2015-11-20 16:51:26 +0800</tspan>
<tspan x="10" y="138">fix readme</tspan>
<tspan x="10" y="154"></tspan>
<tspan x="10" y="170">2015-11-20 16:48:28 +0800</tspan>
<tspan x="10" y="186">- update devDependencty to utility2@2015.11.4</tspan>
<tspan x="10" y="202"></tspan>
<tspan x="10" y="218">2015-11-20 16:27:34 +0800</tspan>
<tspan x="10" y="234">- update to electron @ 0.35.1</tspan>
<tspan x="10" y="250"></tspan>
<tspan x="10" y="266">2015-11-20 04:41:18 +0800</tspan>
<tspan x="10" y="282">- fix quickstart screen-capture example</tspan>
<tspan x="10" y="298"></tspan>
<tspan x="10" y="314">2015-11-20 04:30:53 +0800</tspan>
<tspan x="10" y="330">- fix quickstart screen-capture example</tspan>
<tspan x="10" y="346"></tspan>
<tspan x="10" y="362">2015-11-20 04:22:14 +0800</tspan>
<tspan x="10" y="378">- npm publish 2015.10.3</tspan>
<tspan x="10" y="394">- fix linux build</tspan>
<tspan x="10" y="410"></tspan>
<tspan x="10" y="426">2015-11-20 04:19:26 +0800</tspan>
<tspan x="10" y="442">fix linux build</tspan>
<tspan x="10" y="458"></tspan>
<tspan x="10" y="474">2015-11-20 01:56:19 +0800</tspan>
<tspan x="10" y="490">- npm publish 2015.10.2</tspan>
<tspan x="10" y="506"></tspan>
<tspan x="10" y="522">2014-03-26 02:31:50 +0700</tspan>
<tspan x="10" y="538">add blank README.md</tspan>
</text>
</svg>
