<svg height="478" width="720" xmlns="http://www.w3.org/2000/svg">
<rect height="478" fill="#555" width="720"></rect>
<text fill="#7f7" font-family="Courier New" font-size="12" xml:space="preserve">
<tspan x="10" y="26"></tspan>
<tspan x="10" y="42">[MODE_BUILD=testExampleJs] - 2015-11-19T19:07:45Z - testing example.js</tspan>
<tspan x="10" y="58"></tspan>
<tspan x="10" y="74">npm install --unsafe-perm=true kaizhu256/node-electron-prebuilt-lite#alpha &amp;&amp;  printf '{"main":"\</tspan>
<tspan x="10" y="90">example.js","name":"example","version":"0.0.0"}' &gt;  package.json &amp;&amp;  ./node_modules/.bin/electro\</tspan>
<tspan x="10" y="106">n . --disable-overlay-scrollbar --enable-logging</tspan>
<tspan x="10" y="122"></tspan>
<tspan x="10" y="138"></tspan>
<tspan x="10" y="154">&gt; electron-prebuilt-lite@2015.10.3 preinstall /private/tmp/app/node_modules/.staging/electron-pr\</tspan>
<tspan x="10" y="170">ebuilt-lite-7fe2714cecc19e010579a0adc56f9f78</tspan>
<tspan x="10" y="186">&gt; mkdir -p external &amp;&amp; touch external/electron</tspan>
<tspan x="10" y="202"></tspan>
<tspan x="10" y="218"></tspan>
<tspan x="10" y="234">&gt; electron-prebuilt-lite@2015.10.3 postinstall /private/tmp/app/node_modules/electron-prebuilt-l\</tspan>
<tspan x="10" y="250">ite</tspan>
<tspan x="10" y="266">&gt; ./index.sh shNpmPostinstall</tspan>
<tspan x="10" y="282"></tspan>
<tspan x="10" y="298">Darwin</tspan>
<tspan x="10" y="314">/private/tmp/app</tspan>
<tspan x="10" y="330">└── electron-prebuilt-lite@2015.10.3  (git://github.com/kaizhu256/node-electron-prebuilt-lite.gi\</tspan>
<tspan x="10" y="346">t#ece5351a2589f6859b9a49b1069bfa9f4ccb1721)</tspan>
<tspan x="10" y="362"></tspan>
<tspan x="10" y="378">npm WARN ENOENT ENOENT: no such file or directory, open '/private/tmp/app/package.json'</tspan>
<tspan x="10" y="394">npm WARN EPACKAGEJSON app No description</tspan>
<tspan x="10" y="410">npm WARN EPACKAGEJSON app No repository field.</tspan>
<tspan x="10" y="426">npm WARN EPACKAGEJSON app No README data</tspan>
<tspan x="10" y="442">npm WARN EPACKAGEJSON app No license field.</tspan>
<tspan x="10" y="458">[85775:1120/030750:ERROR:renderer_main.cc(200)] Running without renderer sandbox</tspan>
</text>
</svg>
