<svg height="574" width="720" xmlns="http://www.w3.org/2000/svg">
<rect height="574" fill="#555" width="720"></rect>
<text fill="#7f7" font-family="Courier New" font-size="12" xml:space="preserve">
<tspan x="10" y="26"></tspan>
<tspan x="10" y="42">[MODE_BUILD=testExampleJs] - 2015-11-24T07:08:42Z - testing example.js</tspan>
<tspan x="10" y="58"></tspan>
<tspan x="10" y="74">npm install electron-prebuilt-lite &amp;&amp;  printf '{"main":"example.js","name":"example","version":"\</tspan>
<tspan x="10" y="90">0.0.0"}' &gt;  package.json &amp;&amp;  ./node_modules/.bin/electron . --disable-overlay-scrollbar --enable\</tspan>
<tspan x="10" y="106">-logging</tspan>
<tspan x="10" y="122"></tspan>
<tspan x="10" y="138">npm WARN deprecated electron-prebuilt-lite@2015.10.5: this package has been renamed electron-lit\</tspan>
<tspan x="10" y="154">e</tspan>
<tspan x="10" y="170"></tspan>
<tspan x="10" y="186">&gt; electron-prebuilt-lite@2015.10.5 preinstall /tmp/app/node_modules/.staging/electron-prebuilt-l\</tspan>
<tspan x="10" y="202">ite-a12e7dec745efbf626c1236653af8d1b</tspan>
<tspan x="10" y="218">&gt; mkdir -p external &amp;&amp; touch external/electron</tspan>
<tspan x="10" y="234"></tspan>
<tspan x="10" y="250"></tspan>
<tspan x="10" y="266">&gt; electron-prebuilt-lite@2015.10.5 postinstall /tmp/app/node_modules/electron-prebuilt-lite</tspan>
<tspan x="10" y="282">&gt; ./index.sh shNpmPostinstall</tspan>
<tspan x="10" y="298"></tspan>
<tspan x="10" y="314">/tmp/app</tspan>
<tspan x="10" y="330">└── electron-prebuilt-lite@2015.10.5 </tspan>
<tspan x="10" y="346"></tspan>
<tspan x="10" y="362">npm WARN ENOENT ENOENT: no such file or directory, open '/tmp/app/package.json'</tspan>
<tspan x="10" y="378">npm WARN EPACKAGEJSON /tmp/app No description</tspan>
<tspan x="10" y="394">npm WARN EPACKAGEJSON /tmp/app No repository field.</tspan>
<tspan x="10" y="410">npm WARN EPACKAGEJSON /tmp/app No README data</tspan>
<tspan x="10" y="426">npm WARN EPACKAGEJSON /tmp/app No license field.</tspan>
<tspan x="10" y="442">[2500:1124/070844:ERROR:browser_main_loop.cc(189)] Running without the SUID sandbox! See https:/\</tspan>
<tspan x="10" y="458">/code.google.com/p/chromium/wiki/LinuxSUIDSandboxDevelopment for more information on developing \</tspan>
<tspan x="10" y="474">with the sandbox on.</tspan>
<tspan x="10" y="490">Xlib:  extension "RANDR" missing on display ":99.0".</tspan>
<tspan x="10" y="506">Xlib:  extension "RANDR" missing on display ":99.0".</tspan>
<tspan x="10" y="522">[2518:1124/070844:ERROR:sandbox_linux.cc(345)] InitializeSandbox() called with multiple threads \</tspan>
<tspan x="10" y="538">in process gpu-process</tspan>
<tspan x="10" y="554">[2541:1124/070844:ERROR:renderer_main.cc(200)] Running without renderer sandbox</tspan>
</text>
</svg>
