<svg height="2910" width="720" xmlns="http://www.w3.org/2000/svg">
<rect height="2910" fill="#555" width="720"></rect>
<text fill="#7f7" font-family="Courier New" font-size="12" xml:space="preserve">
<tspan x="10" y="26"></tspan>
<tspan x="10" y="42">[MODE_BUILD=testExampleJs] - 2015-11-19T15:14:14Z - testing example.js</tspan>
<tspan x="10" y="58"></tspan>
<tspan x="10" y="74">npm install electron-prebuilt &amp;&amp;  printf '{"main":"example.js","name":"example","version":"0.0.0\</tspan>
<tspan x="10" y="90">"}' &gt;  package.json &amp;&amp;  ./node_modules/.bin/electron .</tspan>
<tspan x="10" y="106"></tspan>
<tspan x="10" y="122"></tspan>
<tspan x="10" y="138">&gt; electron-prebuilt@0.35.0 postinstall /private/tmp/app/node_modules/electron-prebuilt</tspan>
<tspan x="10" y="154">&gt; node install.js</tspan>
<tspan x="10" y="170"></tspan>
<tspan x="10" y="186">/private/tmp/app</tspan>
<tspan x="10" y="202">└─┬ electron-prebuilt@0.35.0 </tspan>
<tspan x="10" y="218">  ├─┬ electron-download@1.4.0 </tspan>
<tspan x="10" y="234">  │ ├─┬ debug@2.2.0 </tspan>
<tspan x="10" y="250">  │ │ └── ms@0.7.1 </tspan>
<tspan x="10" y="266">  │ ├── home-path@1.0.1 </tspan>
<tspan x="10" y="282">  │ ├── minimist@1.2.0 </tspan>
<tspan x="10" y="298">  │ ├─┬ mkdirp@0.5.1 </tspan>
<tspan x="10" y="314">  │ │ └── minimist@0.0.8 </tspan>
<tspan x="10" y="330">  │ ├─┬ mv@2.1.1 </tspan>
<tspan x="10" y="346">  │ │ ├── ncp@2.0.0 </tspan>
<tspan x="10" y="362">  │ │ └─┬ rimraf@2.4.3 </tspan>
<tspan x="10" y="378">  │ │   └─┬ glob@5.0.15 </tspan>
<tspan x="10" y="394">  │ │     ├─┬ inflight@1.0.4 </tspan>
<tspan x="10" y="410">  │ │     │ └── wrappy@1.0.1 </tspan>
<tspan x="10" y="426">  │ │     ├─┬ minimatch@3.0.0 </tspan>
<tspan x="10" y="442">  │ │     │ └─┬ brace-expansion@1.1.1 </tspan>
<tspan x="10" y="458">  │ │     │   ├── balanced-match@0.2.1 </tspan>
<tspan x="10" y="474">  │ │     │   └── concat-map@0.0.1 </tspan>
<tspan x="10" y="490">  │ │     ├── once@1.3.2 </tspan>
<tspan x="10" y="506">  │ │     └── path-is-absolute@1.0.0 </tspan>
<tspan x="10" y="522">  │ ├─┬ nugget@1.6.0 </tspan>
<tspan x="10" y="538">  │ │ ├─┬ pretty-bytes@1.0.4 </tspan>
<tspan x="10" y="554">  │ │ │ ├── get-stdin@4.0.1 </tspan>
<tspan x="10" y="570">  │ │ │ └─┬ meow@3.6.0 </tspan>
<tspan x="10" y="586">  │ │ │   ├─┬ camelcase-keys@2.0.0 </tspan>
<tspan x="10" y="602">  │ │ │   │ ├── camelcase@2.0.1 </tspan>
<tspan x="10" y="618">  │ │ │   │ └── map-obj@1.0.1 </tspan>
<tspan x="10" y="634">  │ │ │   ├─┬ loud-rejection@1.2.0 </tspan>
<tspan x="10" y="650">  │ │ │   │ └── signal-exit@2.1.2 </tspan>
<tspan x="10" y="666">  │ │ │   ├─┬ normalize-package-data@2.3.5 </tspan>
<tspan x="10" y="682">  │ │ │   │ ├── hosted-git-info@2.1.4 </tspan>
<tspan x="10" y="698">  │ │ │   │ ├─┬ is-builtin-module@1.0.0 </tspan>
<tspan x="10" y="714">  │ │ │   │ │ └── builtin-modules@1.1.0 </tspan>
<tspan x="10" y="730">  │ │ │   │ ├── semver@5.1.0 </tspan>
<tspan x="10" y="746">  │ │ │   │ └─┬ validate-npm-package-license@3.0.1 </tspan>
<tspan x="10" y="762">  │ │ │   │   ├─┬ spdx-correct@1.0.2 </tspan>
<tspan x="10" y="778">  │ │ │   │   │ └── spdx-license-ids@1.1.0 </tspan>
<tspan x="10" y="794">  │ │ │   │   └─┬ spdx-expression-parse@1.0.1 </tspan>
<tspan x="10" y="810">  │ │ │   │     └── spdx-exceptions@1.0.4 </tspan>
<tspan x="10" y="826">  │ │ │   ├── object-assign@4.0.1 </tspan>
<tspan x="10" y="842">  │ │ │   ├─┬ read-pkg-up@1.0.1 </tspan>
<tspan x="10" y="858">  │ │ │   │ ├─┬ find-up@1.1.0 </tspan>
<tspan x="10" y="874">  │ │ │   │ │ ├── path-exists@2.1.0 </tspan>
<tspan x="10" y="890">  │ │ │   │ │ └─┬ pinkie-promise@2.0.0 </tspan>
<tspan x="10" y="906">  │ │ │   │ │   └── pinkie@2.0.1 </tspan>
<tspan x="10" y="922">  │ │ │   │ └─┬ read-pkg@1.1.0 </tspan>
<tspan x="10" y="938">  │ │ │   │   ├─┬ load-json-file@1.1.0 </tspan>
<tspan x="10" y="954">  │ │ │   │   │ ├── graceful-fs@4.1.2 </tspan>
<tspan x="10" y="970">  │ │ │   │   │ ├─┬ parse-json@2.2.0 </tspan>
<tspan x="10" y="986">  │ │ │   │   │ │ └─┬ error-ex@1.3.0 </tspan>
<tspan x="10" y="1002">  │ │ │   │   │ │   └── is-arrayish@0.2.1 </tspan>
<tspan x="10" y="1018">  │ │ │   │   │ ├── pify@2.3.0 </tspan>
<tspan x="10" y="1034">  │ │ │   │   │ └─┬ strip-bom@2.0.0 </tspan>
<tspan x="10" y="1050">  │ │ │   │   │   └── is-utf8@0.2.0 </tspan>
<tspan x="10" y="1066">  │ │ │   │   └── path-type@1.1.0 </tspan>
<tspan x="10" y="1082">  │ │ │   ├─┬ redent@1.0.0 </tspan>
<tspan x="10" y="1098">  │ │ │   │ ├─┬ indent-string@2.1.0 </tspan>
<tspan x="10" y="1114">  │ │ │   │ │ └─┬ repeating@2.0.0 </tspan>
<tspan x="10" y="1130">  │ │ │   │ │   └─┬ is-finite@1.0.1 </tspan>
<tspan x="10" y="1146">  │ │ │   │ │     └── number-is-nan@1.0.0 </tspan>
<tspan x="10" y="1162">  │ │ │   │ └── strip-indent@1.0.1 </tspan>
<tspan x="10" y="1178">  │ │ │   └── trim-newlines@1.0.0 </tspan>
<tspan x="10" y="1194">  │ │ ├─┬ progress-stream@1.1.1 </tspan>
<tspan x="10" y="1210">  │ │ │ ├── single-line-log@0.3.1 </tspan>
<tspan x="10" y="1226">  │ │ │ ├── speedometer@0.1.4 </tspan>
<tspan x="10" y="1242">  │ │ │ └─┬ through2@0.2.3 </tspan>
<tspan x="10" y="1258">  │ │ │   ├── readable-stream@1.1.13 </tspan>
<tspan x="10" y="1274">  │ │ │   └─┬ xtend@2.1.2 </tspan>
<tspan x="10" y="1290">  │ │ │     └── object-keys@0.4.0 </tspan>
<tspan x="10" y="1306">  │ │ ├─┬ request@2.67.0 </tspan>
<tspan x="10" y="1322">  │ │ │ ├── aws-sign2@0.6.0 </tspan>
<tspan x="10" y="1338">  │ │ │ ├─┬ bl@1.0.0 </tspan>
<tspan x="10" y="1354">  │ │ │ │ └── readable-stream@2.0.4 </tspan>
<tspan x="10" y="1370">  │ │ │ ├── caseless@0.11.0 </tspan>
<tspan x="10" y="1386">  │ │ │ ├─┬ combined-stream@1.0.5 </tspan>
<tspan x="10" y="1402">  │ │ │ │ └── delayed-stream@1.0.0 </tspan>
<tspan x="10" y="1418">  │ │ │ ├── extend@3.0.0 </tspan>
<tspan x="10" y="1434">  │ │ │ ├── forever-agent@0.6.1 </tspan>
<tspan x="10" y="1450">  │ │ │ ├─┬ form-data@1.0.0-rc3 </tspan>
<tspan x="10" y="1466">  │ │ │ │ └── async@1.5.0 </tspan>
<tspan x="10" y="1482">  │ │ │ ├─┬ har-validator@2.0.2 </tspan>
<tspan x="10" y="1498">  │ │ │ │ ├─┬ chalk@1.1.1 </tspan>
<tspan x="10" y="1514">  │ │ │ │ │ ├── ansi-styles@2.1.0 </tspan>
<tspan x="10" y="1530">  │ │ │ │ │ ├── escape-string-regexp@1.0.3 </tspan>
<tspan x="10" y="1546">  │ │ │ │ │ ├─┬ has-ansi@2.0.0 </tspan>
<tspan x="10" y="1562">  │ │ │ │ │ │ └── ansi-regex@2.0.0 </tspan>
<tspan x="10" y="1578">  │ │ │ │ │ ├── strip-ansi@3.0.0 </tspan>
<tspan x="10" y="1594">  │ │ │ │ │ └── supports-color@2.0.0 </tspan>
<tspan x="10" y="1610">  │ │ │ │ ├─┬ commander@2.9.0 </tspan>
<tspan x="10" y="1626">  │ │ │ │ │ └── graceful-readlink@1.0.1 </tspan>
<tspan x="10" y="1642">  │ │ │ │ ├─┬ is-my-json-valid@2.12.3 </tspan>
<tspan x="10" y="1658">  │ │ │ │ │ ├── generate-function@2.0.0 </tspan>
<tspan x="10" y="1674">  │ │ │ │ │ ├─┬ generate-object-property@1.2.0 </tspan>
<tspan x="10" y="1690">  │ │ │ │ │ │ └── is-property@1.0.2 </tspan>
<tspan x="10" y="1706">  │ │ │ │ │ ├── jsonpointer@2.0.0 </tspan>
<tspan x="10" y="1722">  │ │ │ │ │ └── xtend@4.0.1 </tspan>
<tspan x="10" y="1738">  │ │ │ │ └─┬ pinkie-promise@1.0.0 </tspan>
<tspan x="10" y="1754">  │ │ │ │   └── pinkie@1.0.0 </tspan>
<tspan x="10" y="1770">  │ │ │ ├─┬ hawk@3.1.1 </tspan>
<tspan x="10" y="1786">  │ │ │ │ ├── boom@2.10.1 </tspan>
<tspan x="10" y="1802">  │ │ │ │ ├── cryptiles@2.0.5 </tspan>
<tspan x="10" y="1818">  │ │ │ │ ├── hoek@2.16.3 </tspan>
<tspan x="10" y="1834">  │ │ │ │ └── sntp@1.0.9 </tspan>
<tspan x="10" y="1850">  │ │ │ ├─┬ http-signature@1.1.0 </tspan>
<tspan x="10" y="1866">  │ │ │ │ ├── assert-plus@0.1.5 </tspan>
<tspan x="10" y="1882">  │ │ │ │ ├─┬ jsprim@1.2.2 </tspan>
<tspan x="10" y="1898">  │ │ │ │ │ ├── extsprintf@1.0.2 </tspan>
<tspan x="10" y="1914">  │ │ │ │ │ ├── json-schema@0.2.2 </tspan>
<tspan x="10" y="1930">  │ │ │ │ │ └── verror@1.3.6 </tspan>
<tspan x="10" y="1946">  │ │ │ │ └─┬ sshpk@1.7.0 </tspan>
<tspan x="10" y="1962">  │ │ │ │   ├── asn1@0.2.3 </tspan>
<tspan x="10" y="1978">  │ │ │ │   ├── assert-plus@0.2.0 </tspan>
<tspan x="10" y="1994">  │ │ │ │   ├── dashdash@1.10.1 </tspan>
<tspan x="10" y="2010">  │ │ │ │   ├─┬ ecc-jsbn@0.0.1 </tspan>
<tspan x="10" y="2026">  │ │ │ │   │ └── jsbn@0.0.0  (git+https://github.com/rynomad/jsbn.git#bb522b0124f75424f89d49446\</tspan>
<tspan x="10" y="2042">c40a87111942c7b)</tspan>
<tspan x="10" y="2058">  │ │ │ │   ├── jodid25519@1.0.2 </tspan>
<tspan x="10" y="2074">  │ │ │ │   ├── jsbn@0.1.0 </tspan>
<tspan x="10" y="2090">  │ │ │ │   └── tweetnacl@0.13.2 </tspan>
<tspan x="10" y="2106">  │ │ │ ├── is-typedarray@1.0.0 </tspan>
<tspan x="10" y="2122">  │ │ │ ├── isstream@0.1.2 </tspan>
<tspan x="10" y="2138">  │ │ │ ├── json-stringify-safe@5.0.1 </tspan>
<tspan x="10" y="2154">  │ │ │ ├─┬ mime-types@2.1.7 </tspan>
<tspan x="10" y="2170">  │ │ │ │ └── mime-db@1.19.0 </tspan>
<tspan x="10" y="2186">  │ │ │ ├── node-uuid@1.4.7 </tspan>
<tspan x="10" y="2202">  │ │ │ ├── oauth-sign@0.8.0 </tspan>
<tspan x="10" y="2218">  │ │ │ ├── qs@5.2.0 </tspan>
<tspan x="10" y="2234">  │ │ │ ├── stringstream@0.0.5 </tspan>
<tspan x="10" y="2250">  │ │ │ ├── tough-cookie@2.2.1 </tspan>
<tspan x="10" y="2266">  │ │ │ └── tunnel-agent@0.4.1 </tspan>
<tspan x="10" y="2282">  │ │ ├── single-line-log@0.4.1 </tspan>
<tspan x="10" y="2298">  │ │ └── throttleit@0.0.2 </tspan>
<tspan x="10" y="2314">  │ ├── path-exists@1.0.0 </tspan>
<tspan x="10" y="2330">  │ └─┬ rc@1.1.5 </tspan>
<tspan x="10" y="2346">  │   ├── deep-extend@0.4.0 </tspan>
<tspan x="10" y="2362">  │   ├── ini@1.3.4 </tspan>
<tspan x="10" y="2378">  │   └── strip-json-comments@1.0.4 </tspan>
<tspan x="10" y="2394">  └─┬ extract-zip@1.2.0 </tspan>
<tspan x="10" y="2410">    ├── async@0.9.0 </tspan>
<tspan x="10" y="2426">    ├─┬ concat-stream@1.5.0 </tspan>
<tspan x="10" y="2442">    │ ├── inherits@2.0.1 </tspan>
<tspan x="10" y="2458">    │ ├─┬ readable-stream@2.0.4 </tspan>
<tspan x="10" y="2474">    │ │ ├── core-util-is@1.0.1 </tspan>
<tspan x="10" y="2490">    │ │ ├── isarray@0.0.1 </tspan>
<tspan x="10" y="2506">    │ │ ├── process-nextick-args@1.0.3 </tspan>
<tspan x="10" y="2522">    │ │ ├── string_decoder@0.10.31 </tspan>
<tspan x="10" y="2538">    │ │ └── util-deprecate@1.0.2 </tspan>
<tspan x="10" y="2554">    │ └── typedarray@0.0.6 </tspan>
<tspan x="10" y="2570">    ├── debug@0.7.4 </tspan>
<tspan x="10" y="2586">    ├─┬ mkdirp@0.5.0 </tspan>
<tspan x="10" y="2602">    │ └── minimist@0.0.8 </tspan>
<tspan x="10" y="2618">    └─┬ yauzl@2.3.1 </tspan>
<tspan x="10" y="2634">      ├── fd-slicer@1.0.1 </tspan>
<tspan x="10" y="2650">      └── pend@1.2.0 </tspan>
<tspan x="10" y="2666"></tspan>
<tspan x="10" y="2682">npm WARN ENOENT ENOENT: no such file or directory, open '/private/tmp/app/package.json'</tspan>
<tspan x="10" y="2698">npm WARN EPACKAGEJSON app No description</tspan>
<tspan x="10" y="2714">npm WARN EPACKAGEJSON app No repository field.</tspan>
<tspan x="10" y="2730">npm WARN EPACKAGEJSON app No README data</tspan>
<tspan x="10" y="2746">npm WARN EPACKAGEJSON app No license field.</tspan>
<tspan x="10" y="2762">{ toPng: [Function: toPng],</tspan>
<tspan x="10" y="2778">  toJpeg: [Function: toJpeg],</tspan>
<tspan x="10" y="2794">  toDataURL: [Function: toDataURL],</tspan>
<tspan x="10" y="2810">  toDataUrl: [Function: toDataUrl],</tspan>
<tspan x="10" y="2826">  isEmpty: [Function: isEmpty],</tspan>
<tspan x="10" y="2842">  getSize: [Function: getSize],</tspan>
<tspan x="10" y="2858">  setTemplateImage: [Function: setTemplateImage],</tspan>
<tspan x="10" y="2874">  isTemplateImage: [Function: isTemplateImage] }</tspan>
<tspan x="10" y="2890">electron - created screen-capture screen-capture.png</tspan>
</text>
</svg>
